<mxfile host="app.diagrams.net" modified="2024-06-07T00:30:26.374Z" agent="Mozilla/5.0 (Windows NT 10.0; Win64; x64) AppleWebKit/537.36 (KHTML, like Gecko) Chrome/125.0.0.0 Safari/537.36" etag="oQ9P_1hpzDT27oqtOLTP" version="24.5.1" type="device">
  <diagram name="PÃ¡gina-1" id="rTxuylyj1AgO0106ieqS">
    <mxGraphModel dx="880" dy="468" grid="1" gridSize="10" guides="1" tooltips="1" connect="1" arrows="1" fold="1" page="1" pageScale="1" pageWidth="827" pageHeight="1169" math="0" shadow="0">
      <root>
        <mxCell id="0" />
        <mxCell id="1" parent="0" />
        <mxCell id="4wDUPw99TidM18gp3yrh-39" style="edgeStyle=orthogonalEdgeStyle;rounded=0;orthogonalLoop=1;jettySize=auto;html=1;exitX=1;exitY=0.5;exitDx=0;exitDy=0;entryX=0;entryY=0.5;entryDx=0;entryDy=0;endArrow=none;endFill=0;" edge="1" parent="1" source="4wDUPw99TidM18gp3yrh-1" target="4wDUPw99TidM18gp3yrh-18">
          <mxGeometry relative="1" as="geometry" />
        </mxCell>
        <mxCell id="4wDUPw99TidM18gp3yrh-51" style="edgeStyle=orthogonalEdgeStyle;rounded=0;orthogonalLoop=1;jettySize=auto;html=1;exitX=0.75;exitY=1;exitDx=0;exitDy=0;entryX=0;entryY=0.5;entryDx=0;entryDy=0;endArrow=none;endFill=0;" edge="1" parent="1" source="4wDUPw99TidM18gp3yrh-1" target="4wDUPw99TidM18gp3yrh-19">
          <mxGeometry relative="1" as="geometry">
            <Array as="points">
              <mxPoint x="210" y="160" />
              <mxPoint x="580" y="160" />
              <mxPoint x="580" y="210" />
            </Array>
          </mxGeometry>
        </mxCell>
        <mxCell id="4wDUPw99TidM18gp3yrh-53" style="edgeStyle=orthogonalEdgeStyle;rounded=0;orthogonalLoop=1;jettySize=auto;html=1;exitX=0.5;exitY=1;exitDx=0;exitDy=0;entryX=0.5;entryY=0;entryDx=0;entryDy=0;endArrow=none;endFill=0;" edge="1" parent="1" source="4wDUPw99TidM18gp3yrh-1" target="4wDUPw99TidM18gp3yrh-17">
          <mxGeometry relative="1" as="geometry" />
        </mxCell>
        <mxCell id="4wDUPw99TidM18gp3yrh-71" style="edgeStyle=orthogonalEdgeStyle;rounded=0;orthogonalLoop=1;jettySize=auto;html=1;exitX=0.25;exitY=0;exitDx=0;exitDy=0;endArrow=oval;endFill=0;" edge="1" parent="1" source="4wDUPw99TidM18gp3yrh-1">
          <mxGeometry relative="1" as="geometry">
            <mxPoint x="90" y="20" as="targetPoint" />
          </mxGeometry>
        </mxCell>
        <mxCell id="4wDUPw99TidM18gp3yrh-72" style="edgeStyle=orthogonalEdgeStyle;rounded=0;orthogonalLoop=1;jettySize=auto;html=1;exitX=0.5;exitY=0;exitDx=0;exitDy=0;endArrow=oval;endFill=0;" edge="1" parent="1" source="4wDUPw99TidM18gp3yrh-1">
          <mxGeometry relative="1" as="geometry">
            <mxPoint x="150" y="20" as="targetPoint" />
          </mxGeometry>
        </mxCell>
        <mxCell id="4wDUPw99TidM18gp3yrh-73" style="edgeStyle=orthogonalEdgeStyle;rounded=0;orthogonalLoop=1;jettySize=auto;html=1;exitX=0.75;exitY=0;exitDx=0;exitDy=0;endArrow=oval;endFill=1;" edge="1" parent="1" source="4wDUPw99TidM18gp3yrh-1">
          <mxGeometry relative="1" as="geometry">
            <mxPoint x="210" y="20" as="targetPoint" />
          </mxGeometry>
        </mxCell>
        <mxCell id="4wDUPw99TidM18gp3yrh-1" value="ALUNO" style="rounded=0;whiteSpace=wrap;html=1;" vertex="1" parent="1">
          <mxGeometry x="30" y="60" width="240" height="60" as="geometry" />
        </mxCell>
        <mxCell id="4wDUPw99TidM18gp3yrh-77" style="edgeStyle=orthogonalEdgeStyle;rounded=0;orthogonalLoop=1;jettySize=auto;html=1;exitX=0.25;exitY=1;exitDx=0;exitDy=0;endArrow=oval;endFill=0;" edge="1" parent="1" source="4wDUPw99TidM18gp3yrh-3">
          <mxGeometry relative="1" as="geometry">
            <mxPoint x="630" y="470" as="targetPoint" />
          </mxGeometry>
        </mxCell>
        <mxCell id="4wDUPw99TidM18gp3yrh-78" style="edgeStyle=orthogonalEdgeStyle;rounded=0;orthogonalLoop=1;jettySize=auto;html=1;exitX=0.5;exitY=1;exitDx=0;exitDy=0;endArrow=oval;endFill=0;" edge="1" parent="1" source="4wDUPw99TidM18gp3yrh-3">
          <mxGeometry relative="1" as="geometry">
            <mxPoint x="690" y="470" as="targetPoint" />
          </mxGeometry>
        </mxCell>
        <mxCell id="4wDUPw99TidM18gp3yrh-79" style="edgeStyle=orthogonalEdgeStyle;rounded=0;orthogonalLoop=1;jettySize=auto;html=1;exitX=0.75;exitY=1;exitDx=0;exitDy=0;endArrow=oval;endFill=1;" edge="1" parent="1" source="4wDUPw99TidM18gp3yrh-3">
          <mxGeometry relative="1" as="geometry">
            <mxPoint x="750" y="470" as="targetPoint" />
          </mxGeometry>
        </mxCell>
        <mxCell id="4wDUPw99TidM18gp3yrh-3" value="ESTADO" style="rounded=0;whiteSpace=wrap;html=1;" vertex="1" parent="1">
          <mxGeometry x="570" y="350" width="240" height="60" as="geometry" />
        </mxCell>
        <mxCell id="4wDUPw99TidM18gp3yrh-74" style="edgeStyle=orthogonalEdgeStyle;rounded=0;orthogonalLoop=1;jettySize=auto;html=1;exitX=0.25;exitY=0;exitDx=0;exitDy=0;endArrow=oval;endFill=0;" edge="1" parent="1" source="4wDUPw99TidM18gp3yrh-4">
          <mxGeometry relative="1" as="geometry">
            <mxPoint x="630" y="20" as="targetPoint" />
          </mxGeometry>
        </mxCell>
        <mxCell id="4wDUPw99TidM18gp3yrh-75" style="edgeStyle=orthogonalEdgeStyle;rounded=0;orthogonalLoop=1;jettySize=auto;html=1;exitX=0.5;exitY=0;exitDx=0;exitDy=0;endArrow=oval;endFill=0;" edge="1" parent="1" source="4wDUPw99TidM18gp3yrh-4">
          <mxGeometry relative="1" as="geometry">
            <mxPoint x="690" y="20" as="targetPoint" />
          </mxGeometry>
        </mxCell>
        <mxCell id="4wDUPw99TidM18gp3yrh-76" style="edgeStyle=orthogonalEdgeStyle;rounded=0;orthogonalLoop=1;jettySize=auto;html=1;exitX=0.75;exitY=0;exitDx=0;exitDy=0;endArrow=oval;endFill=1;" edge="1" parent="1" source="4wDUPw99TidM18gp3yrh-4">
          <mxGeometry relative="1" as="geometry">
            <mxPoint x="750" y="20" as="targetPoint" />
          </mxGeometry>
        </mxCell>
        <mxCell id="4wDUPw99TidM18gp3yrh-4" value="TELEFONE" style="rounded=0;whiteSpace=wrap;html=1;" vertex="1" parent="1">
          <mxGeometry x="570" y="60" width="240" height="60" as="geometry" />
        </mxCell>
        <mxCell id="4wDUPw99TidM18gp3yrh-67" style="edgeStyle=orthogonalEdgeStyle;rounded=0;orthogonalLoop=1;jettySize=auto;html=1;exitX=0.25;exitY=1;exitDx=0;exitDy=0;endArrow=oval;endFill=0;" edge="1" parent="1" source="4wDUPw99TidM18gp3yrh-5">
          <mxGeometry relative="1" as="geometry">
            <mxPoint x="90" y="590" as="targetPoint" />
          </mxGeometry>
        </mxCell>
        <mxCell id="4wDUPw99TidM18gp3yrh-69" style="edgeStyle=orthogonalEdgeStyle;rounded=0;orthogonalLoop=1;jettySize=auto;html=1;exitX=0.5;exitY=1;exitDx=0;exitDy=0;endArrow=oval;endFill=0;" edge="1" parent="1" source="4wDUPw99TidM18gp3yrh-5">
          <mxGeometry relative="1" as="geometry">
            <mxPoint x="150" y="590" as="targetPoint" />
            <Array as="points">
              <mxPoint x="150" y="550" />
              <mxPoint x="151" y="550" />
            </Array>
          </mxGeometry>
        </mxCell>
        <mxCell id="4wDUPw99TidM18gp3yrh-70" style="edgeStyle=orthogonalEdgeStyle;rounded=0;orthogonalLoop=1;jettySize=auto;html=1;exitX=0.75;exitY=1;exitDx=0;exitDy=0;endArrow=oval;endFill=1;" edge="1" parent="1" source="4wDUPw99TidM18gp3yrh-5">
          <mxGeometry relative="1" as="geometry">
            <mxPoint x="210" y="590" as="targetPoint" />
          </mxGeometry>
        </mxCell>
        <mxCell id="4wDUPw99TidM18gp3yrh-5" value="CURSO" style="rounded=0;whiteSpace=wrap;html=1;" vertex="1" parent="1">
          <mxGeometry x="30" y="440" width="240" height="60" as="geometry" />
        </mxCell>
        <mxCell id="4wDUPw99TidM18gp3yrh-56" style="edgeStyle=orthogonalEdgeStyle;rounded=0;orthogonalLoop=1;jettySize=auto;html=1;exitX=0.5;exitY=1;exitDx=0;exitDy=0;entryX=0.5;entryY=0;entryDx=0;entryDy=0;endArrow=none;endFill=0;" edge="1" parent="1" source="4wDUPw99TidM18gp3yrh-17" target="4wDUPw99TidM18gp3yrh-45">
          <mxGeometry relative="1" as="geometry" />
        </mxCell>
        <mxCell id="4wDUPw99TidM18gp3yrh-17" value="&lt;font size=&quot;1&quot;&gt;MATRICULADO&lt;/font&gt;" style="shape=rhombus;double=1;perimeter=rhombusPerimeter;whiteSpace=wrap;html=1;align=center;" vertex="1" parent="1">
          <mxGeometry x="105" y="145" width="90" height="80" as="geometry" />
        </mxCell>
        <mxCell id="4wDUPw99TidM18gp3yrh-40" style="edgeStyle=orthogonalEdgeStyle;rounded=0;orthogonalLoop=1;jettySize=auto;html=1;exitX=1;exitY=0.5;exitDx=0;exitDy=0;entryX=0;entryY=0.5;entryDx=0;entryDy=0;endArrow=none;endFill=0;" edge="1" parent="1" source="4wDUPw99TidM18gp3yrh-18" target="4wDUPw99TidM18gp3yrh-4">
          <mxGeometry relative="1" as="geometry" />
        </mxCell>
        <mxCell id="4wDUPw99TidM18gp3yrh-18" value="POSSUI/PERTENCE" style="shape=rhombus;double=1;perimeter=rhombusPerimeter;whiteSpace=wrap;html=1;align=center;" vertex="1" parent="1">
          <mxGeometry x="340" y="50" width="176.5" height="80" as="geometry" />
        </mxCell>
        <mxCell id="4wDUPw99TidM18gp3yrh-38" style="edgeStyle=orthogonalEdgeStyle;rounded=0;orthogonalLoop=1;jettySize=auto;html=1;entryX=0.5;entryY=0;entryDx=0;entryDy=0;endArrow=none;endFill=0;" edge="1" parent="1" source="4wDUPw99TidM18gp3yrh-19" target="4wDUPw99TidM18gp3yrh-3">
          <mxGeometry relative="1" as="geometry" />
        </mxCell>
        <mxCell id="4wDUPw99TidM18gp3yrh-19" value="RESIDE/POSSUI" style="shape=rhombus;double=1;perimeter=rhombusPerimeter;whiteSpace=wrap;html=1;align=center;" vertex="1" parent="1">
          <mxGeometry x="623" y="170" width="134" height="80" as="geometry" />
        </mxCell>
        <mxCell id="4wDUPw99TidM18gp3yrh-32" value="(N,0)" style="text;html=1;align=center;verticalAlign=middle;resizable=0;points=[];autosize=1;strokeColor=none;fillColor=none;" vertex="1" parent="1">
          <mxGeometry x="625" y="280" width="50" height="30" as="geometry" />
        </mxCell>
        <mxCell id="4wDUPw99TidM18gp3yrh-33" value="0,N1" style="text;html=1;align=center;verticalAlign=middle;resizable=0;points=[];autosize=1;strokeColor=none;fillColor=none;" vertex="1" parent="1">
          <mxGeometry x="280" y="50" width="50" height="30" as="geometry" />
        </mxCell>
        <mxCell id="4wDUPw99TidM18gp3yrh-58" style="edgeStyle=orthogonalEdgeStyle;rounded=0;orthogonalLoop=1;jettySize=auto;html=1;exitX=0.5;exitY=1;exitDx=0;exitDy=0;entryX=0.5;entryY=0;entryDx=0;entryDy=0;endArrow=none;endFill=0;" edge="1" parent="1" source="4wDUPw99TidM18gp3yrh-45" target="4wDUPw99TidM18gp3yrh-57">
          <mxGeometry relative="1" as="geometry" />
        </mxCell>
        <mxCell id="4wDUPw99TidM18gp3yrh-64" style="edgeStyle=orthogonalEdgeStyle;rounded=0;orthogonalLoop=1;jettySize=auto;html=1;exitX=1;exitY=0.25;exitDx=0;exitDy=0;endArrow=oval;endFill=1;" edge="1" parent="1" source="4wDUPw99TidM18gp3yrh-45">
          <mxGeometry relative="1" as="geometry">
            <mxPoint x="260" y="265" as="targetPoint" />
          </mxGeometry>
        </mxCell>
        <mxCell id="4wDUPw99TidM18gp3yrh-65" style="edgeStyle=orthogonalEdgeStyle;rounded=0;orthogonalLoop=1;jettySize=auto;html=1;exitX=1;exitY=0.5;exitDx=0;exitDy=0;endArrow=oval;endFill=1;" edge="1" parent="1" source="4wDUPw99TidM18gp3yrh-45">
          <mxGeometry relative="1" as="geometry">
            <mxPoint x="260" y="280" as="targetPoint" />
          </mxGeometry>
        </mxCell>
        <mxCell id="4wDUPw99TidM18gp3yrh-66" style="edgeStyle=orthogonalEdgeStyle;rounded=0;orthogonalLoop=1;jettySize=auto;html=1;exitX=1;exitY=0.75;exitDx=0;exitDy=0;endArrow=oval;endFill=1;" edge="1" parent="1" source="4wDUPw99TidM18gp3yrh-45">
          <mxGeometry relative="1" as="geometry">
            <mxPoint x="260" y="295" as="targetPoint" />
          </mxGeometry>
        </mxCell>
        <mxCell id="4wDUPw99TidM18gp3yrh-45" value="ALUNO/CURSO" style="rounded=0;whiteSpace=wrap;html=1;" vertex="1" parent="1">
          <mxGeometry x="90" y="250" width="120" height="60" as="geometry" />
        </mxCell>
        <mxCell id="4wDUPw99TidM18gp3yrh-50" value="N" style="text;html=1;align=center;verticalAlign=middle;resizable=0;points=[];autosize=1;strokeColor=none;fillColor=none;" vertex="1" parent="1">
          <mxGeometry x="85" y="330" width="30" height="30" as="geometry" />
        </mxCell>
        <mxCell id="4wDUPw99TidM18gp3yrh-59" value="" style="edgeStyle=orthogonalEdgeStyle;rounded=0;orthogonalLoop=1;jettySize=auto;html=1;endArrow=none;endFill=0;" edge="1" parent="1" source="4wDUPw99TidM18gp3yrh-57" target="4wDUPw99TidM18gp3yrh-5">
          <mxGeometry relative="1" as="geometry" />
        </mxCell>
        <mxCell id="4wDUPw99TidM18gp3yrh-57" value="&lt;font size=&quot;1&quot;&gt;POSSUI&lt;/font&gt;" style="shape=rhombus;double=1;perimeter=rhombusPerimeter;whiteSpace=wrap;html=1;align=center;" vertex="1" parent="1">
          <mxGeometry x="105" y="330" width="90" height="80" as="geometry" />
        </mxCell>
        <mxCell id="4wDUPw99TidM18gp3yrh-60" value="1" style="text;html=1;align=center;verticalAlign=middle;resizable=0;points=[];autosize=1;strokeColor=none;fillColor=none;" vertex="1" parent="1">
          <mxGeometry x="85" y="118" width="30" height="30" as="geometry" />
        </mxCell>
        <mxCell id="4wDUPw99TidM18gp3yrh-61" value="N" style="text;html=1;align=center;verticalAlign=middle;resizable=0;points=[];autosize=1;strokeColor=none;fillColor=none;" vertex="1" parent="1">
          <mxGeometry x="85" y="208" width="30" height="30" as="geometry" />
        </mxCell>
        <mxCell id="4wDUPw99TidM18gp3yrh-63" value="1" style="text;html=1;align=center;verticalAlign=middle;resizable=0;points=[];autosize=1;strokeColor=none;fillColor=none;" vertex="1" parent="1">
          <mxGeometry x="85" y="398" width="30" height="30" as="geometry" />
        </mxCell>
        <mxCell id="4wDUPw99TidM18gp3yrh-80" value="1" style="text;html=1;align=center;verticalAlign=middle;resizable=0;points=[];autosize=1;strokeColor=none;fillColor=none;" vertex="1" parent="1">
          <mxGeometry x="50" y="540" width="30" height="30" as="geometry" />
        </mxCell>
        <mxCell id="4wDUPw99TidM18gp3yrh-81" value="2" style="text;html=1;align=center;verticalAlign=middle;resizable=0;points=[];autosize=1;strokeColor=none;fillColor=none;" vertex="1" parent="1">
          <mxGeometry x="105" y="540" width="30" height="30" as="geometry" />
        </mxCell>
        <mxCell id="4wDUPw99TidM18gp3yrh-82" value="3" style="text;html=1;align=center;verticalAlign=middle;resizable=0;points=[];autosize=1;strokeColor=none;fillColor=none;" vertex="1" parent="1">
          <mxGeometry x="180" y="540" width="30" height="30" as="geometry" />
        </mxCell>
        <mxCell id="4wDUPw99TidM18gp3yrh-84" value="2" style="text;html=1;align=center;verticalAlign=middle;resizable=0;points=[];autosize=1;strokeColor=none;fillColor=none;" vertex="1" parent="1">
          <mxGeometry x="700" y="10" width="30" height="30" as="geometry" />
        </mxCell>
        <mxCell id="4wDUPw99TidM18gp3yrh-86" value="3" style="text;html=1;align=center;verticalAlign=middle;resizable=0;points=[];autosize=1;strokeColor=none;fillColor=none;" vertex="1" parent="1">
          <mxGeometry x="750" y="440" width="30" height="30" as="geometry" />
        </mxCell>
        <mxCell id="4wDUPw99TidM18gp3yrh-87" value="3" style="text;html=1;align=center;verticalAlign=middle;resizable=0;points=[];autosize=1;strokeColor=none;fillColor=none;" vertex="1" parent="1">
          <mxGeometry x="270" y="295" width="30" height="30" as="geometry" />
        </mxCell>
        <mxCell id="4wDUPw99TidM18gp3yrh-88" value="3" style="text;html=1;align=center;verticalAlign=middle;resizable=0;points=[];autosize=1;strokeColor=none;fillColor=none;" vertex="1" parent="1">
          <mxGeometry x="220" y="10" width="30" height="30" as="geometry" />
        </mxCell>
        <mxCell id="4wDUPw99TidM18gp3yrh-89" value="3" style="text;html=1;align=center;verticalAlign=middle;resizable=0;points=[];autosize=1;strokeColor=none;fillColor=none;" vertex="1" parent="1">
          <mxGeometry x="757" y="10" width="30" height="30" as="geometry" />
        </mxCell>
        <mxCell id="4wDUPw99TidM18gp3yrh-90" value="2" style="text;html=1;align=center;verticalAlign=middle;resizable=0;points=[];autosize=1;strokeColor=none;fillColor=none;" vertex="1" parent="1">
          <mxGeometry x="690" y="440" width="30" height="30" as="geometry" />
        </mxCell>
        <mxCell id="4wDUPw99TidM18gp3yrh-91" value="2" style="text;html=1;align=center;verticalAlign=middle;resizable=0;points=[];autosize=1;strokeColor=none;fillColor=none;" vertex="1" parent="1">
          <mxGeometry x="150" y="10" width="30" height="30" as="geometry" />
        </mxCell>
        <mxCell id="4wDUPw99TidM18gp3yrh-92" value="2" style="text;html=1;align=center;verticalAlign=middle;resizable=0;points=[];autosize=1;strokeColor=none;fillColor=none;" vertex="1" parent="1">
          <mxGeometry x="270" y="265" width="30" height="30" as="geometry" />
        </mxCell>
        <mxCell id="4wDUPw99TidM18gp3yrh-93" value="1" style="text;html=1;align=center;verticalAlign=middle;resizable=0;points=[];autosize=1;strokeColor=none;fillColor=none;" vertex="1" parent="1">
          <mxGeometry x="635" y="10" width="30" height="30" as="geometry" />
        </mxCell>
        <mxCell id="4wDUPw99TidM18gp3yrh-94" value="1" style="text;html=1;align=center;verticalAlign=middle;resizable=0;points=[];autosize=1;strokeColor=none;fillColor=none;" vertex="1" parent="1">
          <mxGeometry x="100" y="10" width="30" height="30" as="geometry" />
        </mxCell>
        <mxCell id="4wDUPw99TidM18gp3yrh-95" value="1" style="text;html=1;align=center;verticalAlign=middle;resizable=0;points=[];autosize=1;strokeColor=none;fillColor=none;" vertex="1" parent="1">
          <mxGeometry x="270" y="238" width="30" height="30" as="geometry" />
        </mxCell>
        <mxCell id="4wDUPw99TidM18gp3yrh-96" value="1" style="text;html=1;align=center;verticalAlign=middle;resizable=0;points=[];autosize=1;strokeColor=none;fillColor=none;" vertex="1" parent="1">
          <mxGeometry x="625" y="440" width="30" height="30" as="geometry" />
        </mxCell>
      </root>
    </mxGraphModel>
  </diagram>
</mxfile>
